<?xml version="1.0" encoding="UTF-8" standalone="no"?>
<!-- Created with Inkscape (http://www.inkscape.org/) -->

<svg
   xmlns:dc="http://purl.org/dc/elements/1.1/"
   xmlns:cc="http://creativecommons.org/ns#"
   xmlns:rdf="http://www.w3.org/1999/02/22-rdf-syntax-ns#"
   xmlns:svg="http://www.w3.org/2000/svg"
   xmlns="http://www.w3.org/2000/svg"
   xmlns:sodipodi="http://sodipodi.sourceforge.net/DTD/sodipodi-0.dtd"
   xmlns:inkscape="http://www.inkscape.org/namespaces/inkscape"
   id="svg2"
   version="1.1"
   inkscape:version="0.48.4 r9939"
   width="508"
   height="310"
   sodipodi:docname="Bowl_(PSF).jpg">
  <metadata
     id="metadata8">
    <rdf:RDF>
      <cc:Work
         rdf:about="">
        <dc:format>image/svg+xml</dc:format>
        <dc:type
           rdf:resource="http://purl.org/dc/dcmitype/StillImage" />
        <dc:title></dc:title>
      </cc:Work>
    </rdf:RDF>
  </metadata>
  <defs
     id="defs6" />
  <sodipodi:namedview
     pagecolor="#ffffff"
     bordercolor="#666666"
     borderopacity="1"
     objecttolerance="10"
     gridtolerance="10"
     guidetolerance="10"
     inkscape:pageopacity="0"
     inkscape:pageshadow="2"
     inkscape:window-width="1920"
     inkscape:window-height="1014"
     id="namedview4"
     showgrid="false"
     inkscape:zoom="0.59645669"
     inkscape:cx="257.35314"
     inkscape:cy="155"
     inkscape:window-x="0"
     inkscape:window-y="27"
     inkscape:window-maximized="1"
     inkscape:current-layer="svg2" />
  <path
     style="fill:#000000"
     d="m 214.66805,269.18475 c -3.01058,-0.24768 -3.7023,-0.65311 -3.22711,-1.89144 0.51447,-1.34069 0.36606,-1.37802 -0.99333,-0.24983 -1.11808,0.92793 -5.15506,1.34591 -13.43878,1.39144 -11.21406,0.0616 -14.30276,-0.4743 -12.59218,-2.18492 0.80347,-0.8035 8.52437,-0.92276 12.4904,-0.19294 1.39266,0.25628 2.58851,-0.0893 2.83766,-0.82005 0.41273,-1.21051 -11.27923,-1.76366 -25.74471,-1.21799 -12.24628,0.46196 -15.6838,0.24622 -14.45,-0.90689 0.88067,-0.82307 12.92055,-1.92421 23.45,-2.14468 3.79085,-0.0794 4.1376,-0.23964 2.20034,-1.01698 -2.06646,-0.82919 -23.95425,-1.33993 -30.20034,-0.70472 -1.375,0.13984 -2.725,-0.19575 -3,-0.74575 -0.31382,-0.62764 3.58437,-1.11248 10.46873,-1.30207 6.0328,-0.16613 11.1703,-0.50363 11.41667,-0.75 1.36529,-1.36528 -2.21535,-1.94123 -11.72468,-1.88593 -10.65271,0.0619 -21.77674,1.29719 -19.40449,2.15471 0.69093,0.24976 1.00187,0.86568 0.69098,1.3687 -0.94498,1.52902 -2.44532,1.02313 -2.47762,-0.83541 -0.029,-1.66667 -0.0789,-1.66667 -1.04969,0 -1.40122,2.40575 -3.87085,2.27844 -3.23146,-0.16659 0.44267,-1.69279 -0.0323,-1.90384 -4.0677,-1.80741 -2.51289,0.06 -4.86617,-0.18809 -5.2295,-0.55143 -0.36333,-0.36333 3.72396,-0.64862 9.08286,-0.63398 7.97959,0.0218 28.5259,-1.8027 28.5259,-2.53309 0,-0.10755 -7.9875,-0.0163 -17.75,0.20284 -21.59587,0.4847 -22.72532,0.47878 -27.75,-0.1454 -2.2,-0.27329 -5.0875,-0.52345 -6.41667,-0.55592 -1.32916,-0.0325 -2.11214,-0.36354 -1.73995,-0.73574 0.3722,-0.37219 8.9972,-0.59329 19.16667,-0.49133 18.15086,0.18199 21.14352,-0.34143 16.41647,-2.87128 -2.35364,-1.25963 -27.91881,-0.9601 -27.92359,0.32716 -0.004,0.96418 -14.36383,0.72519 -15.96717,-0.26573 -1.1192,-0.6917 16.26899,-2.00844 26.64281,-2.01755 2.97252,-0.003 5.74572,-0.57169 6.5099,-1.33588 1.62506,-1.62505 6.26157,-2.8853 7.19202,-1.95485 0.37257,0.37257 1.22687,0.7709 1.89845,0.88517 0.67158,0.11427 2.00856,0.52439 2.97106,0.91138 1.80128,0.72423 2.50531,-0.92553 0.8354,-1.95759 -0.50303,-0.31089 -4.17076,-0.80266 -8.15051,-1.09283 -6.19556,-0.45172 -7.06541,-0.32215 -6.05009,0.90124 1.00323,1.20882 0.53345,1.36532 -3.05123,1.01642 -2.33036,-0.22681 -4.48375,-0.74206 -4.7853,-1.145 -0.30155,-0.40293 -3.75836,-0.74534 -7.6818,-0.76089 -5.38864,-0.0214 -7.01355,0.28439 -6.64301,1.25 0.38124,0.99351 -1.92818,1.25266 -10.36647,1.16328 -8.565597,-0.0907 -10.012781,-0.29199 -6.85699,-0.95363 2.2,-0.46125 5.9125,-0.58341 8.25,-0.27146 2.55031,0.34035 4.25,0.16635 4.25,-0.43508 0,-0.55123 1.60306,-1.30298 3.56235,-1.67055 2.6202,-0.49155 3.47708,-1.11604 3.23995,-2.36129 -0.25381,-1.33286 -1.63699,-1.75599 -6.50245,-1.98915 -5.35984,-0.25686 -6.32439,-0.0265 -7.26742,1.73557 -0.94567,1.767 -1.809986,1.97025 -6.6333,1.55981 -3.05027,-0.25956 -5.962912,-0.72962 -6.472538,-1.04459 -2.002527,-1.23763 -0.762213,-2.23611 2.323408,-1.87039 1.7875,0.21186 3.925,0.46297 4.75,0.55802 0.825,0.095 2.4,0.0876 3.5,-0.0165 1.97399,-0.18687 1.97476,-0.20843 0.05887,-1.65753 C 97.491249,233.66069 97.079646,233 97.644196,233 104.52674,233 120.28319,231.80933 123,231.08394 c 2.45632,-0.65584 -2.11223,-0.88224 -15.32064,-0.75923 -17.067957,0.15897 -18.511397,0.0429 -15.499996,-1.24663 2.918489,-1.24972 6.267037,-1.6146 18.237306,-1.98727 1.60416,-0.0499 2.65997,-0.3475 2.34624,-0.66123 -0.31373,-0.31373 -5.45123,-0.74095 -11.41666,-0.94939 C 95.380812,225.27176 88.925,225.03977 87,224.96466 l -3.5,-0.13657 3,-0.95537 c 1.65,-0.52546 9.816199,-0.76696 18.14711,-0.53666 15.67083,0.4332 21.61199,1.66289 13.35289,2.76375 l -4.5,0.5998 5.80902,0.1502 c 3.20402,0.0828 5.5609,-0.25126 5.25574,-0.74503 -0.3043,-0.49236 0.16925,-1.17247 1.05232,-1.51134 1.10879,-0.42548 1.43867,-0.1811 1.06611,0.78978 -0.4275,1.11403 0.692,1.3943 5.39241,1.35003 l 5.93192,-0.0559 -2.50968,-3.08868 c -1.38033,-1.69878 -3.94332,-5.11369 -5.69555,-7.58869 -1.75223,-2.475 -3.54956,-4.65 -3.99408,-4.83333 C 125.3637,210.98333 125,210.24105 125,209.51716 c 0,-0.7239 -1.53741,-3.60076 -3.41647,-6.39303 -1.87906,-2.79227 -4.79362,-7.99161 -6.47682,-11.5541 C 109.75388,180.24075 103.20109,171.20933 87.5,153.52096 76.793645,141.4595 71.130018,129.35861 71.035622,118.34322 70.955754,109.02326 78.951759,97.063876 91,88.483102 94.025,86.328692 96.830609,84.101145 97.234687,83.532997 97.704035,82.873077 97.980435,82.86116 98,83.5 c 0.01723,0.562658 0.351935,0.508523 0.765313,-0.123781 C 101.60332,79.035195 140.87151,63.538892 159.12185,59.557878 162.62983,58.792669 170.45,57.03925 176.5,55.661391 c 11.40104,-2.596533 34.49531,-5.733567 57,-7.742652 20.71068,-1.848928 58.48148,-0.202494 82,3.574391 5.5,0.883255 12.7,2.020077 16,2.526271 6.96075,1.067723 20.52336,3.990857 32.07588,6.913279 11.77898,2.979709 40.39618,13.952829 43.50286,16.680953 C 407.94705,78.376135 409.0149,79 409.45175,79 c 1.36249,0 13.83743,9.131222 18.32897,13.416171 8.55147,8.158139 14.2819,19.684349 14.17682,28.515329 -0.0681,5.72509 -4.31935,16.55752 -8.74357,22.27923 -5.09466,6.58877 -18.92057,20.72052 -23.94544,24.47512 -6.8867,5.14576 -9.91967,8.73026 -15.60669,18.44471 -3.10086,5.29681 -5.9826,10.47181 -6.40387,11.5 -0.42127,1.02819 -2.90165,5.13654 -5.51196,9.12967 -2.6103,3.99312 -4.74601,7.51417 -4.74601,7.82454 0,0.31038 -2.43576,3.79327 -5.4128,7.73977 -12.12749,16.07674 -33.62883,29.96433 -58.0872,37.51818 -12.58309,3.88623 -20.37834,6.08555 -23.4961,6.62909 -17.68642,3.0834 -30.4268,3.6724 -53.76597,2.48567 -9.17799,-0.46667 -16.92366,-0.53551 -17.21259,-0.15299 -0.28894,0.38253 -2.24972,0.55365 -4.35729,0.38026 z M 283,259.92147 c 24.12483,-3.4083 40.74811,-8.11189 58,-16.41123 9.77817,-4.70397 19.10568,-10.84855 20.94918,-13.80047 1.13871,-1.82336 1.0175,-1.92664 -1.60884,-1.37079 -2.17516,0.46036 -1.90357,0.17081 1.15966,-1.23638 2.2,-1.01064 4.9,-2.85697 6,-4.10296 2,-2.26544 2,-2.26544 0,-1.68003 -1.1,0.32198 -3.35,0.83776 -5,1.14618 -2.66919,0.49892 -2.55892,0.34693 1,-1.37835 2.2,-1.06651 4.49276,-1.97249 5.09501,-2.01328 0.60226,-0.0408 1.89556,-0.95875 2.874,-2.03992 1.74008,-1.92276 1.71344,-1.94696 -1.21812,-1.1062 -1.6484,0.47276 -4.0667,1.55961 -5.37399,2.41522 -1.3073,0.85561 -4.4019,1.81924 -6.8769,2.14139 l -4.5,0.58574 6,-2.36388 c 8.7382,-3.44267 15.2365,-6.68408 16.53376,-8.24718 0.94811,-1.14241 0.58508,-1.19757 -2.1991,-0.33417 -12.17372,3.77517 -16.71514,4.38328 -9.08466,1.21645 7.11918,-2.95462 15.71247,-7.47176 16.46475,-8.65484 1.64611,-2.58877 0.42292,-2.46925 -8.76436,0.85641 -11.14147,4.03305 -11.54378,4.10472 -8.17752,1.45682 1.39842,-1.1 3.09571,-2 3.77174,-2 1.59743,0 17.74342,-7.84801 18.42935,-8.95787 0.51029,-0.82566 -6.91145,1.68901 -12.97396,4.39591 -5.00949,2.23673 -7.5,2.77778 -7.5,1.62935 0,-0.58707 0.65973,-1.06739 1.46607,-1.06739 1.9088,0 8.53393,-3.1627 8.53393,-4.07392 0,-0.38692 1.4625,-0.97989 3.25,-1.3177 3.94249,-0.74507 9.75,-4.14983 9.75,-5.71613 0,-0.75448 -0.42063,-0.81445 -1.25,-0.17819 -0.6875,0.52742 -3.95,2.00268 -7.25,3.27837 -3.3,1.27568 -6.4275,2.69925 -6.95,3.16349 -0.5225,0.46425 -2.3225,0.82281 -4,0.79681 -2.51983,-0.0391 -1.57247,-0.73081 5.45,-3.97953 11.48921,-5.31513 17.3716,-8.588 17.81246,-9.91058 0.36775,-1.10325 -0.1118,-0.96044 -8.31246,2.47533 -13.85566,5.80502 -21.5,8.10176 -21.5,6.45966 0,-1.09662 0.16518,-1.1732 12,-5.56351 8.27606,-3.07014 24.27887,-11.80551 26.24594,-14.32674 1.09457,-1.40294 1.04488,-1.44392 -0.39068,-0.32227 -0.90461,0.70679 -2.02961,1.17266 -2.5,1.03526 -0.47039,-0.13741 -2.73726,0.95819 -5.03748,2.43467 -10.73883,6.89307 -45.57265,16.50743 -75.31778,20.78819 -6.875,0.98941 -15.65,2.26978 -19.5,2.84526 -13.27878,1.98485 -85.2596,0.35233 -100.5,-2.27933 -1.375,-0.23744 -4.75,-0.72081 -7.5,-1.07418 -2.75,-0.35336 -6.35,-1.03999 -8,-1.52583 -1.65,-0.48584 -5.025,-1.13656 -7.5,-1.44605 -6.36191,-0.79552 -27.80388,-6.16444 -29.27371,-7.32992 -0.67446,-0.53481 -2.96919,-1.28684 -5.0994,-1.67118 -2.13021,-0.38434 -4.60521,-1.10315 -5.5,-1.59736 C 134.2321,179.4704 128.775,176.86189 123,174.16791 117.225,171.47393 110.1177,167.85907 107.20599,166.13489 101.44388,162.72281 101,162.56236 101,163.89159 c 0,0.49038 1.0125,1.14999 2.25,1.4658 1.2375,0.31582 4.61609,2.35835 7.50798,4.53896 2.89189,2.18061 9.64189,6.12321 15,8.76134 7.26006,3.57457 9.16192,4.88472 7.46506,5.14253 -2.37405,0.3607 -18.36597,-7.06259 -20.34064,-9.44191 C 112.26239,173.61124 111.1619,173 110.43686,173 c -1.05972,0 -1.08117,0.45699 -0.10934,2.33019 3.31258,6.385 8.1722,10.09121 22.56685,17.21071 3.93592,1.94668 5.93748,3.44499 5.20602,3.89705 -0.65359,0.40394 -2.27772,0.0206 -3.60918,-0.85175 C 133.15974,194.71379 131.18109,194 130.0942,194 c -1.08689,0 -2.25428,-0.45 -2.5942,-1 -0.33992,-0.55 -1.49148,-1 -2.55902,-1 -1.06754,0 -1.94449,-0.3375 -1.94878,-0.75 -0.004,-0.4125 -1.13004,-1.27051 -2.50166,-1.9067 l -2.49385,-1.15669 2.00399,2.81435 c 1.77543,2.49336 14.69477,8.99904 17.87079,8.99904 0.55577,0 1.29976,0.46804 1.6533,1.04008 0.92869,1.50265 -3.82817,0.16886 -11.27477,-3.16135 -3.4375,-1.5373 -6.25,-2.44991 -6.25,-2.02804 0,1.22192 2.28857,3.65935 5,5.32523 2.3241,1.42791 14.95428,6.0377 19.5,7.11715 1.46763,0.34851 1.24837,0.50581 -0.82368,0.59093 -1.55303,0.0638 -6.175,-1.009 -10.27106,-2.384 -9.01356,-3.02575 -9.20157,-3.03739 -6.83559,-0.42302 2.75337,3.04245 11.39593,6.84075 18.35405,8.0664 3.34195,0.58868 6.07628,1.43261 6.07628,1.87541 0,1.57652 -13.78607,-1.39819 -19.22067,-4.14736 -2.80116,-1.41701 -3.58766,-1.53551 -3.18243,-0.47951 0.81621,2.12701 14.12227,8.34861 20.9031,9.7738 4.53794,0.95378 5.32704,1.34737 3.23828,1.61523 -2.98079,0.38225 -13.44709,-2.31936 -15.48828,-3.99792 -1.35968,-1.11811 -1.66576,0.0392 -0.48469,1.83257 1.03433,1.57058 10.78392,5.886 16.73469,7.4072 2.75,0.70298 5.675,1.64675 6.5,2.09727 2.22225,1.21352 -3.22582,1.12477 -6.46102,-0.10525 -1.42517,-0.54185 -3.59196,-1.17667 -4.8151,-1.41071 -1.22313,-0.23405 -3.12388,-0.71252 -4.22388,-1.06326 -2.93296,-0.93521 7.38946,4.39781 11.5,5.94141 7.93455,2.9796 9.25278,3.59829 8.74616,4.10492 -0.57974,0.57973 -11.28736,-2.73608 -14.65416,-4.53795 -3.76599,-2.01549 -2.19749,-0.45256 3.158,3.14678 13.87575,9.32569 24.65117,13.65401 47.75,19.18046 14.535,3.47753 19.62046,4.12221 41,5.19747 6.325,0.31811 11.95,0.74689 12.5,0.95285 1.54903,0.58005 18.14939,-0.42556 26.5,-1.60532 z m -36.06743,-0.32223 c -0.25281,-0.25281 -4.05356,-0.56144 -8.44611,-0.68582 C 227.53568,258.60331 223,257.96884 223,256.74711 c 0,-0.68344 2.96695,-0.81098 8.75,-0.37613 30.21038,2.27161 48.90257,1.65894 61.50339,-2.01589 2.88563,-0.84155 7.04661,-1.72159 9.24661,-1.95565 3.63609,-0.38684 3.45413,-0.23726 -2,1.6442 -11.84212,4.08504 -18.77363,5.15981 -36.05388,5.59036 -9.37964,0.2337 -17.26073,0.21806 -17.51355,-0.0348 z M 232.5,253.82487 c -3.3,-0.49524 -7.44961,-0.7503 -9.22135,-0.5668 -2.01619,0.20882 -3.41234,-0.16409 -3.73188,-0.99678 -0.41524,-1.08211 1.21249,-1.18399 8.72135,-0.54585 12.84293,1.09144 51.44861,0.7329 55.9861,-0.51997 2.06018,-0.56884 3.74578,-0.67162 3.74578,-0.22841 0,0.82352 -6.3351,2.11186 -13.5,2.74544 -9.72942,0.86035 -36.53792,0.93208 -42,0.11237 z m 11.30665,-5.35155 c -0.21004,-0.21005 -4.63997,-0.65949 -9.84427,-0.99876 -11.81964,-0.77053 -13.45496,-0.98047 -18.71238,-2.40228 -5.67892,-1.5358 -5.39931,-2.43272 0.5,-1.6039 19.05918,2.67771 28.32576,3.34864 41.75,3.02284 8.25,-0.20022 16.57203,-0.84266 18.4934,-1.42763 4.2684,-1.29954 5.75649,-1.37362 4.4566,-0.22183 -1.91442,1.69628 -12.9843,3.36259 -24.47311,3.68383 -6.48359,0.18129 -11.9602,0.15777 -12.17024,-0.0523 z m -6.90226,-5.90226 c -0.23123,-0.23123 -3.34181,-0.69675 -6.9124,-1.0345 -22.19266,-2.09922 -26.37223,-2.6686 -29.65361,-4.03964 -4.58812,-1.91704 -4.03787,-2.61261 1.17041,-1.47951 10.80211,2.35006 14.79206,2.92149 24.45778,3.50279 5.75661,0.3462 10.78884,0.82863 11.18272,1.07207 0.39389,0.24343 7.07587,0.48032 14.84885,0.52642 7.77298,0.0461 13.94134,0.27516 13.70746,0.50904 -0.57093,0.57094 -28.26649,1.47805 -28.80121,0.94333 z M 224.5,234.99464 c -15.22226,-1.73986 -18.40071,-2.22585 -24.25,-3.7079 -9.33014,-2.36401 -7.54321,-3.18112 2.5,-1.14318 4.8125,0.97654 11.45,2.03903 14.75,2.36109 3.3,0.32206 8.01604,0.81695 10.4801,1.09975 2.46405,0.2828 9.88905,0.52433 16.5,0.53675 6.61094,0.0124 13.8199,0.36239 16.0199,0.77771 5.09151,0.96121 -27.65032,1.03013 -36,0.0758 z M 354.5,233 c -0.33992,-0.55 -0.14148,-1 0.44098,-1 0.58246,0 1.05902,0.45 1.05902,1 0,0.55 -0.19844,1 -0.44098,1 -0.24254,0 -0.7191,-0.45 -1.05902,-1 z m -123,-4.06452 c -3.3,-0.49614 -8.27545,-0.94173 -11.05656,-0.9902 -2.7811,-0.0485 -5.7061,-0.53754 -6.5,-1.08682 -1.62201,-1.12223 5.5333,-0.80613 26.28729,1.16128 9.58306,0.90844 15.06469,0.93157 22.17044,0.0935 10.60718,-1.25098 14.20995,-1.39108 13.33754,-0.51866 -1.69663,1.69663 -35.1318,2.71003 -44.23871,1.34085 z M 203,226.75521 c -2.475,-0.47426 -5.4,-1.01014 -6.5,-1.19085 -1.1,-0.18071 -2.675,-0.56904 -3.5,-0.86294 -0.825,-0.29391 -2.7906,-0.81886 -4.368,-1.16657 -1.5774,-0.3477 -2.67105,-0.82913 -2.43034,-1.06984 0.24071,-0.24071 4.00631,0.25713 8.368,1.1063 4.36169,0.84918 9.84284,1.55553 12.18034,1.56966 2.3375,0.0141 4.25,0.38571 4.25,0.82573 0,1.36372 -3.30047,1.68903 -8,0.78851 z m 29.91573,-3.81897 c -18.3081,-1.77469 -23.59016,-2.60044 -24.33412,-3.80419 -0.49209,-0.79622 -0.43833,-0.79267 21.91839,1.44935 8.8,0.8825 22.22669,1.54227 29.83709,1.46615 8.74454,-0.0875 13.61587,0.21954 13.23602,0.83415 -0.33058,0.5349 -5.35667,1.00159 -11.16908,1.03708 -5.8124,0.0355 -10.86861,0.21246 -11.23602,0.39326 -0.36741,0.1808 -8.58093,-0.43831 -18.25228,-1.3758 z m -33.11097,-3.46481 c -0.29071,-0.29072 -2.50321,-0.91641 -4.91666,-1.39044 l -4.3881,-0.86186 5.25,-0.10956 c 4.0487,-0.0845 5.25,0.23366 5.25,1.39043 0,1.58103 -0.32307,1.8436 -1.19524,0.97143 z m 3.24779,-0.43895 c -1.77656,-1.09798 0.0452,-1.92834 2.37434,-1.08221 1.57436,0.57193 1.64924,0.80654 0.40931,1.28234 -0.83466,0.32029 -2.0873,0.23023 -2.78365,-0.20013 z M 230.5,215.91423 c -4.95,-0.44042 -12.825,-1.28055 -17.5,-1.86696 -4.675,-0.5864 -9.4,-1.07473 -10.5,-1.08517 -4.33548,-0.0411 -21.03761,-3.09971 -21.95917,-4.02127 -0.63777,-0.63777 0.0551,-0.81144 1.99042,-0.4989 7.54589,1.2186 19.663,2.60411 26.72287,3.05558 4.26477,0.27273 9.66477,0.91874 12,1.43559 4.66449,1.03237 27.90078,2.69972 31.51241,2.26121 1.24659,-0.15135 3.04659,0.17932 4,0.73484 2.09165,1.21873 -12.49437,1.21044 -26.26653,-0.0149 z m 30.5,-0.0309 c 0,-0.61978 0.87923,-0.88671 1.976,-0.5999 1.08679,0.28421 3.56419,0.15854 5.50532,-0.27926 3.84084,-0.86625 5.91162,0.38904 2.25743,1.36845 C 266.99284,217.37664 261,217.07556 261,215.88337 z m -82.75,-0.54565 c -0.6875,-0.27741 -1.25,-0.83895 -1.25,-1.24786 0,-1.00578 5.8833,-0.0877 6.57126,1.02544 0.57449,0.92955 -3.1799,1.08648 -5.32126,0.22242 z m 89.41599,-3.98146 c -0.0913,-0.079 -8.26599,-0.43403 -18.16599,-0.78883 -9.9,-0.3548 -22.5,-1.33086 -28,-2.16901 -5.5,-0.83815 -15.625,-2.37121 -22.5,-3.4068 -6.875,-1.03558 -17,-2.80311 -22.5,-3.92784 -5.5,-1.12472 -10.96436,-2.04919 -12.14301,-2.05437 -2.24541,-0.01 -3.93412,-2.53469 -2.35009,-3.51367 0.50575,-0.31257 4.80306,0.37049 9.54957,1.51791 10.3139,2.49329 21.44353,3.95048 21.44353,2.80759 0,-0.45168 -0.7875,-0.85824 -1.75,-0.90347 -8.97995,-0.42196 -41.59908,-8.67416 -47.17184,-11.93384 -2.76462,-1.61711 0.78358,-1.17438 8.94194,1.11574 4.11394,1.15482 7.9299,2.17997 8.4799,2.27812 0.55,0.0982 1.5625,0.52985 2.25,0.95935 0.6875,0.42949 1.25,0.54047 1.25,0.24663 0,-0.29385 1.13635,-0.10223 2.52523,0.42582 1.38887,0.52805 5.55137,1.43604 9.25,2.01776 3.69862,0.58172 7.84977,1.26729 9.22477,1.52349 1.375,0.2562 6.1,0.69698 10.5,0.97952 4.4,0.28253 8.675,0.70785 9.5,0.94517 0.825,0.23731 5.55,0.67313 10.5,0.96849 11.6432,0.69473 23.46605,1.69627 26,2.20253 4.04717,0.80858 36.47127,0.35814 52,-0.72239 14.37535,-1.00027 22.43445,-2.1096 36.49045,-5.02289 4.4299,-0.91816 7.92953,-0.48791 6.62691,0.8147 -0.3679,0.3679 -1.6698,0.80153 -2.89313,0.96363 -1.22333,0.16209 -4.02423,0.73866 -6.22423,1.28125 -7.23116,1.78344 -29.81709,4.94337 -39.5,5.52633 -5.225,0.31457 -10.85,0.77384 -12.5,1.0206 -5.37008,0.80309 -35.73324,0.4655 -46.5,-0.51701 -5.775,-0.52699 -15.225,-1.63074 -21,-2.45279 -16.59714,-2.36253 -20.61834,-1.87707 -6.97103,0.84158 14.33267,2.85518 28.67556,3.87231 57.97103,4.11103 33.70731,0.27467 48.52599,-0.92069 66.25,-5.34408 2.0625,-0.51474 3.75,-0.64313 3.75,-0.28531 0,2.63449 -23.37999,7.52214 -46.5,9.72096 -6.75931,0.64284 -15.49255,1.06979 -15.83401,0.7741 z m -94.13203,-2.71147 c -2.51524,-1.07275 -2.69421,-1.36932 -1.17755,-1.95131 2.09974,-0.80575 5.96571,0.9763 5.11258,2.35669 -0.32286,0.52241 -0.67297,0.92953 -0.77801,0.90473 -0.10504,-0.0248 -1.5257,-0.61436 -3.15702,-1.31011 z m 168.27854,-15.3279 c 0.72187,-0.28887 1.58438,-0.25335 1.91667,0.0789 0.33229,0.33229 -0.25834,0.56864 -1.3125,0.52522 -1.16495,-0.048 -1.4019,-0.28494 -0.60417,-0.60416 z m -202.23921,43.92306 c -0.31622,-0.31621 -3.11204,-0.91922 -6.21296,-1.34002 -4.2394,-0.5753 -5.97528,-0.42784 -6.99758,0.59447 -1.14609,1.14609 -1.10555,1.41028 0.25818,1.68258 2.53186,0.50554 13.5946,-0.29478 12.95236,-0.93703 z M 121,236 c 0,-0.55 -0.45,-1 -1,-1 -0.55,0 -1,0.45 -1,1 0,0.55 0.45,1 1,1 0.55,0 1,-0.45 1,-1 z m 16,-5 c -0.825,-0.53316 -1.95,-0.96937 -2.5,-0.96937 -0.55,0 -0.325,0.43621 0.5,0.96937 0.825,0.53316 1.95,0.96937 2.5,0.96937 0.55,0 0.325,-0.43621 -0.5,-0.96937 z m 168.5,-38.02614 c 2.75,-0.4555 8.52607,-1.10139 12.83572,-1.43529 8.585,-0.66517 10.75047,-1.10552 42.15931,-8.5732 4.94727,-1.17625 10.88508,-2.99965 13.19514,-4.052 2.31005,-1.05235 4.61759,-1.91337 5.12785,-1.91337 1.22097,0 8.86763,-3.31645 18.18198,-7.88575 24.20389,-11.8736 39.91219,-30.24929 40.83283,-47.76655 0.21104,-4.01547 -0.0951,-7.96266 -0.69806,-9 -0.91293,-1.57067 -1.07851,-1.31696 -1.10436,1.6922 -0.11683,13.60016 -9.22456,28.73996 -23.54862,39.14493 -6.78889,4.93143 -28.0569,15.47513 -38.48179,19.0775 -17.10319,5.91009 -44.07221,12.09526 -58.5,13.41659 -30.63839,2.80594 -66.19916,3.63771 -83.5,1.95307 -3.025,-0.29456 -9.775,-0.81441 -15,-1.15524 -5.225,-0.34083 -11.075,-0.9948 -13,-1.45326 -1.925,-0.45847 -6.425,-1.12176 -10,-1.47398 -25.61298,-2.52345 -53.6029,-10.93717 -80.98404,-24.34364 C 98.184471,151.94401 84.803386,140.77757 78.616826,130.5 c -2.429665,-4.03634 -3.612526,-5.31391 -3.614255,-3.90364 -0.0031,2.51119 2.469725,7.74403 5.669725,11.99803 C 81.952533,140.29631 83,142.01842 83,142.42131 83,143.9145 101.61333,160 103.34117,160 c 0.341,0 3.00849,1.5279 5.92776,3.39533 9.64589,6.1704 18.1916,10.25637 27.2694,13.03834 4.92892,1.51051 9.86167,3.10112 10.96167,3.5347 1.1,0.43357 4.475,1.30638 7.5,1.93957 3.025,0.63319 7.3,1.61613 9.5,2.1843 18.07807,4.66884 50.16018,8.56742 72.96834,8.86703 6.03259,0.0792 11.14571,0.32144 11.36249,0.53822 0.76449,0.7645 51.7358,0.29351 56.66917,-0.52363 z M 305,181.51862 c 5.225,-0.36621 12.875,-1.29986 17,-2.07476 4.125,-0.77491 9.3,-1.62846 11.5,-1.89678 9.17362,-1.11885 12.41643,-1.79995 20.5,-4.30567 9.3425,-2.89596 9.4879,-2.93654 11.16667,-3.11641 0.64166,-0.0687 0.96226,-0.32941 0.71243,-0.57924 -0.24984,-0.24983 -7.18734,-0.70127 -15.41667,-1.00319 -8.22934,-0.30193 -16.53743,-0.94084 -18.46243,-1.41981 -2.13646,-0.53159 4.58383,-0.66542 17.25,-0.34352 18.84551,0.47895 20.75,0.37561 20.75,-1.12595 0,-1.43495 -1.48569,-1.66398 -11.25,-1.73421 -12.68568,-0.0912 -24.95896,-0.7947 -25.63347,-1.46922 C 332.8691,162.20244 340.67177,162 350.45578,162 c 14.51789,0 17.58995,-0.23998 16.70604,-1.30502 -0.7615,-0.91755 -4.77972,-1.38155 -13.53383,-1.56278 -6.84791,-0.14177 -13.72813,-0.65607 -15.28937,-1.14287 -1.76823,-0.55135 2.21282,-0.66305 10.55755,-0.29621 9.90783,0.43556 13.21254,0.29179 12.69098,-0.55211 -0.38785,-0.62755 -2.14113,-1.1479 -3.89617,-1.15632 -2.2528,-0.0108 -2.77795,-0.2768 -1.78616,-0.9047 1.04997,-0.66474 0.0396,-1.60467 -4,-3.72109 -7.38917,-3.87134 -8.25194,-4.19279 -12.60327,-4.69558 -2.09085,-0.2416 -6.72655,-1.15746 -10.30155,-2.03525 -3.575,-0.87779 -8.075,-1.79259 -10,-2.03289 -1.925,-0.24031 -4.625,-0.70964 -6,-1.04298 -1.375,-0.33333 -4.75,-0.82299 -7.5,-1.08815 -2.75,-0.26515 -7.41726,-0.74226 -10.37169,-1.06023 -21.32058,-2.29467 -81.97888,-1.46831 -86.25597,1.17508 -0.36846,0.22772 -2.62796,0.65647 -5.02113,0.95279 -6.54636,0.81055 -25.93784,5.2769 -33.05557,7.61353 -8.36969,2.74763 -12.80174,5.05833 -22.01352,11.47703 -4.24484,2.95776 -8.18234,5.37775 -8.75,5.37775 -2.34644,0 -0.75937,-3.08338 3.21788,-6.25178 8.29328,-6.60667 23.40885,-13.09875 41.22137,-17.70442 6.81312,-1.76162 11.78726,-2.7068 29.52863,-5.611 5.96478,-0.97641 65.01666,-1.40479 71,-0.51505 3.575,0.53161 11.675,1.48235 18,2.11276 6.325,0.63041 18.7,2.44894 27.5,4.04119 25.03832,4.53036 26.37467,4.82466 29.5,6.49678 1.375,0.73565 4.075,2.08261 6,2.99324 2.95317,1.39701 3.26565,1.4159 2,0.12092 -1.31933,-1.3499 -7.39329,-4.54478 -19,-9.99392 -2.10164,-0.98667 -2.77701,-1.65228 -1.69041,-1.66595 2.20547,-0.0277 16.43344,6.72275 22.8993,10.86463 2.58988,1.65902 6.01121,4.81422 7.60295,7.01155 2.06555,2.85141 3.20209,3.68712 3.97001,2.9192 1.60154,-1.60154 -2.92399,-7.87162 -8.5713,-11.87548 -2.5908,-1.83683 -4.93555,-3.64135 -5.21055,-4.01004 -0.78618,-1.05401 -10.78984,-5.93014 -12.21676,-5.95487 -0.70578,-0.0122 -2.40824,-0.95411 -3.78324,-2.09308 -1.70582,-1.41301 -1.9323,-1.8879 -0.71292,-1.49492 0.9829,0.31676 4.3579,1.32046 7.5,2.23044 8.97443,2.59907 23.44858,13.22408 25.71941,18.8798 0.73693,1.83538 0.83823,1.85205 1.23074,0.20251 1.22523,-5.14911 -15.75186,-18.18172 -30.05061,-23.06862 -0.99736,-0.34087 -1.55003,-1.04587 -1.22816,-1.56667 0.63033,-1.01991 4.36015,0.32816 13.75774,4.97246 4.88876,2.41603 5.54303,2.54765 4.51986,0.9093 -0.65799,-1.05361 -3.7775,-3.2914 -6.93224,-4.97286 C 360.6144,130.21019 357.82877,128 359.53214,128 c 0.35759,0 4.6803,2.08148 9.60601,4.62551 8.9712,4.63344 20.75573,14.58502 22.35093,18.87449 0.42911,1.15387 0.93174,1.49985 1.18808,0.81779 0.76363,-2.03183 -2.35091,-6.7956 -8.00032,-12.2367 -6.37722,-6.14208 -15.23498,-12.95504 -18.42684,-14.17301 -1.2375,-0.47222 -2.25,-1.29631 -2.25,-1.83131 0,-1.31169 5.5229,0.64343 7.06439,2.50082 C 371.71367,127.35991 372.7114,128 373.28158,128 376.61642,128 395,144.82481 395,147.8769 c 0,1.1915 0.2634,1.2597 1.20981,0.31329 0.94642,-0.94642 0.83623,-1.84224 -0.5061,-4.11462 -3.74022,-6.33169 -17.32099,-18.78107 -24.54664,-22.5017 -5.30081,-2.72949 -2.96604,-2.91165 2.96863,-0.23161 6.55144,2.95856 18.56726,13.08428 22.40077,18.8771 1.76973,2.67425 2.98578,3.7439 3.27384,2.87972 0.25205,-0.75617 -0.2749,-1.78517 -1.17101,-2.28666 C 397.73318,140.31093 397,139.3243 397,138.61991 c 0,-3.29645 -17.49467,-17.90256 -24.25,-20.24608 -3.43614,-1.19204 -1.67859,-2.1661 2,-1.10843 6.6406,1.90931 20.10333,11.59571 23.85106,17.16076 1.86942,2.77593 3.39894,4.62964 3.39894,4.11936 0,-0.51028 0.66069,-0.0543 1.4682,1.01335 1.12875,1.49234 1.47555,1.59186 1.5,0.43045 0.0175,-0.83087 -1.97263,-4.49858 -4.4225,-8.15047 -3.52295,-5.25149 -5.97975,-7.59045 -11.75,-11.18641 -4.01263,-2.50063 -8.95243,-5.2386 -10.97732,-6.08437 -5.01252,-2.09367 -5.69863,-3.55598 -1.1915,-2.53945 10.11832,2.28205 23.79912,12.1125 28.91922,20.78013 2.09817,3.55192 3.4539,4.10685 3.4539,1.41376 0,-2.34354 -2.41798,-5.69882 -7.29231,-10.11911 C 397.88627,120.63795 386.59166,113 385.28855,113 c -0.34709,0 -1.3415,-0.64012 -2.20981,-1.42248 -0.86831,-0.78236 -3.82874,-2.33282 -6.57874,-3.44547 -5.34496,-2.16256 -3.32764,-2.95666 2.60078,-1.02378 9.22838,3.00879 18.58038,8.63122 25.13867,15.1134 3.74032,3.69691 6.35298,5.88529 5.8059,4.86306 -1.15022,-2.14921 -10.87785,-11.99275 -13.66145,-13.82426 -1.03615,-0.68174 -3.54087,-2.13781 -5.56605,-3.23571 -2.02518,-1.0979 -3.97906,-2.47658 -4.34194,-3.06374 C 385.83726,105.92766 375.52218,101 373.99769,101 c -0.41439,0 -2.4959,-0.76016 -4.62557,-1.689242 -2.12966,-0.929083 -4.28462,-1.716583 -4.78879,-1.75 -0.50416,-0.03342 -1.12533,-0.686767 -1.38037,-1.451889 -0.63998,-1.91994 3.21662,-0.886845 13.29704,3.561966 18.41422,8.126785 26.21321,12.871075 31,18.857965 1.65,2.06368 4.26314,5.15142 5.80699,6.86167 l 2.80698,3.10953 -1.69652,-3.5 c -0.93308,-1.925 -2.13177,-3.78125 -2.66375,-4.125 -0.56277,-0.36365 -0.589,-0.85876 -0.0627,-1.18402 1.3583,-0.83947 2.84294,0.44402 4.69517,4.05902 0.91586,1.7875 2.10365,3.25 2.63953,3.25 1.28305,0 1.2467,-3.62254 -0.0609,-6.06574 C 418.1684,119.44618 418.2555,119 419.34235,119 c 2.10321,0 3.44806,2.08388 3.87473,6.00401 0.29524,2.71257 0.56226,3.10214 1.19158,1.73846 1.31793,-2.85583 -0.26214,-8.37409 -3.34176,-11.67084 C 419.48878,113.38224 418.34132,112 418.517,112 c 0.17569,0 0.96037,-0.24595 1.74375,-0.54657 2.07647,-0.79681 7.15681,10.83767 6.28406,14.39111 -0.35872,1.4605 -0.6572,3.42712 -0.66331,4.37026 -0.013,2.00284 -6.52765,8.84048 -8.10825,8.5102 -0.59221,-0.12375 -2.02096,1.18324 -3.175,2.90442 -4.98515,7.43504 -4.70091,7.11083 -4.05083,4.62058 0.85003,-3.25624 -1.15158,-2.76554 -2.66491,0.65331 -0.70683,1.59682 -2.5413,3.64535 -4.07662,4.55228 -2.61411,1.5442 -5.66279,5.54441 -4.22556,5.54441 1.65689,0 15.39463,-9.92676 19.41967,-14.03246 6.59639,-6.72859 11.84629,-17.39698 13.22881,-26.88244 1.3784,-9.45722 0.63052,-11.7741 -6.05893,-18.769972 C 416.88355,87.603419 400.81699,78.614439 374.73406,68.53762 361.8499,63.559982 329.94902,56.889095 302.5,53.432544 c -13.09564,-1.649084 -65.01581,-2.420905 -74,-1.100049 -2.2,0.323444 -9.4,1.286976 -16,2.141183 -37.10019,4.801702 -67.4462,11.827674 -87.5,20.25876 -1.925,0.809315 -4.4,1.817353 -5.5,2.240084 -8.52066,3.2745 -18.54877,9.360689 -25.473597,15.460247 -12.784365,11.260781 -16.236454,17.766641 -14.307326,26.963821 0.620331,2.95745 2.058412,7.41983 3.195736,9.91641 2.612086,5.73389 11.395048,14.57322 18.544957,18.66398 3.02388,1.73009 5.76138,3.57182 6.08332,4.09274 0.32194,0.52091 4.04395,2.52618 8.27113,4.45614 4.22718,1.92996 8.53856,3.99575 9.58084,4.59064 7.26535,4.14679 40.90437,13.13655 57.10494,15.26084 42.11739,5.52263 88.99068,7.48988 122.5,5.14128 z M 327.5,175 c 0.33992,-0.55 1.23992,-1 2,-1 0.76008,0 1.66008,0.45 2,1 0.35191,0.5694 -0.50929,1 -2,1 -1.49071,0 -2.35191,-0.4306 -2,-1 z m -6.90398,-3.92936 c 0.93681,-0.93681 17.15923,-0.84512 18.5854,0.10505 0.79138,0.52724 -2.7744,0.79574 -8.91824,0.67155 -5.63025,-0.11382 -9.98047,-0.46328 -9.66716,-0.7766 z m 5.21648,-4.75375 c 0.72187,-0.28887 1.58438,-0.25335 1.91667,0.0789 0.33229,0.33229 -0.25834,0.56864 -1.3125,0.52522 -1.16495,-0.048 -1.4019,-0.28494 -0.60417,-0.60416 z M 177.36322,137.30345 c 0.85876,-0.85876 16.48482,-5.00995 22.13678,-5.88082 2.2,-0.33898 7.0375,-1.17833 10.75,-1.86522 3.7125,-0.6869 6.75,-0.90787 6.75,-0.49105 0,0.41681 -1.9125,1.06079 -4.25,1.43105 -7.78244,1.23274 -24.216,4.59266 -26.75,5.46915 -3.67449,1.27099 -9.4676,2.1677 -8.63678,1.33689 z m -7.76373,-1.28142 c 2.60202,-2.53985 19.61237,-7.95155 34.38351,-10.93882 14.03595,-2.83859 15.60082,-3.04434 26.5219,-3.48705 l 9.9951,-0.40517 -8.5,0.92951 c -21.49841,2.35096 -33.6061,4.95981 -53.40051,11.50622 -5.44528,1.80087 -9.49528,2.87876 -9,2.39531 z m 29.21789,-0.63011 c 2.37456,-0.83194 5.07456,-1.31266 6,-1.06827 0.97836,0.25836 0.5563,0.4929 -1.00836,0.56035 -1.48004,0.0638 -2.9691,0.566 -3.30902,1.116 -0.33992,0.55 -1.82898,0.97852 -3.30902,0.95226 -2.25114,-0.0399 -1.9853,-0.29497 1.6264,-1.56034 z m 19.5346,-2.75537 c 7.42294,-1.22164 46.29933,-1.31857 47.49947,-0.11844 0.26503,0.26504 -7.84899,0.48189 -18.03116,0.48189 -10.18217,0 -22.74467,0.20898 -27.91667,0.4644 l -9.40362,0.4644 7.85198,-1.29225 z M 270.75,132.33772 c 0.6875,-0.27741 1.8125,-0.27741 2.5,0 0.6875,0.27741 0.125,0.50439 -1.25,0.50439 -1.375,0 -1.9375,-0.22698 -1.25,-0.50439 z M 171,130.53641 c 0,-1.2804 15.86819,-7.0546 24.5,-8.91519 9.0665,-1.95428 24.71326,-4.44802 31.58976,-5.03469 C 247.3437,114.85855 249,114.81235 249,115.97537 c 0,0.78726 -0.97647,0.96907 -2.91632,0.54301 -1.60398,-0.35229 -4.64148,-0.18329 -6.75,0.37555 -2.10852,0.55885 -7.16033,1.10642 -11.22623,1.21682 -4.0659,0.1104 -9.4659,0.59106 -12,1.06814 -2.5341,0.47708 -5.95745,1.09515 -7.60745,1.37349 -9.69537,1.63551 -22.06384,4.7649 -29.25,7.40065 -4.5375,1.66428 -8.25,2.8268 -8.25,2.58338 z M 218,129 c 0,-0.55 1.6875,-0.95514 3.75,-0.90032 3.34672,0.089 3.48115,0.18578 1.25,0.90032 -3.57455,1.14477 -5,1.14477 -5,0 z m 22,-1.0292 c 0,-0.53528 3.14039,-0.9708 7,-0.9708 9.10079,0 9.09262,1.43328 -0.01,1.7208 -4.0047,0.1265 -6.99,-0.19381 -6.99,-0.75 z m -10.25,-0.6942 c 1.7875,-0.22182 4.7125,-0.22182 6.5,0 1.7875,0.22183 0.325,0.40333 -3.25,0.40333 -3.575,0 -5.0375,-0.1815 -3.25,-0.40333 z m -60.25,-1.00433 c 1.23079,-1.25798 14.54021,-6.56539 15.08867,-6.01693 0.2178,0.2178 -2.63805,1.64943 -6.34634,3.1814 -9.31321,3.84751 -9.92732,4.04669 -8.74233,2.83553 z m -5.5,-2.72548 c 0,-0.79105 9.25902,-4.64139 16,-6.65355 3.575,-1.06713 8.75,-2.62693 11.5,-3.46622 6.12132,-1.8682 34.24523,-6.31309 44.5,-7.03308 4.125,-0.28961 9.19014,-0.89949 11.25586,-1.35527 2.13989,-0.47216 3.99386,-0.44362 4.30902,0.0663 0.30424,0.49226 -0.053,0.89502 -0.79387,0.89502 -2.16327,0 -23.3925,2.79483 -34.27101,4.51177 -5.5,0.86807 -12.25,1.83901 -15,2.15766 -2.75,0.31865 -8.825,1.69336 -13.5,3.05491 -4.675,1.36155 -9.4,2.69958 -10.5,2.9734 -1.1,0.27382 -4.3748,1.57884 -7.27734,2.90005 -5.44439,2.47826 -6.22266,2.72202 -6.22266,1.949 z m 22.52557,-3.50541 c -0.57673,-0.93317 13.47496,-4.43926 23.97443,-5.98195 3.85,-0.56568 9.925,-1.45757 13.5,-1.98197 3.575,-0.5244 10.1,-1.22888 14.5,-1.56552 4.4,-0.33664 9.0125,-0.82312 10.25,-1.08106 1.2375,-0.25794 2.25,-0.0686 2.25,0.42086 0,0.82081 -6.11825,1.66512 -20,2.75999 -8.78893,0.69319 -29.38475,4.21076 -36.98302,6.31635 -3.84089,1.06436 -7.21202,1.56535 -7.49141,1.1133 z m 63.22443,0.29634 c 0.6875,-0.27741 1.8125,-0.27741 2.5,0 0.6875,0.27741 0.125,0.50439 -1.25,0.50439 -1.375,0 -1.9375,-0.22698 -1.25,-0.50439 z m -85.66667,-2.73434 c 2.18856,-2.08325 26.16755,-8.40389 41.97899,-11.06528 5.19072,-0.87371 10.78768,-1.85477 12.43768,-2.18014 1.65,-0.32538 2.72843,-0.30496 2.39652,0.0454 -0.64089,0.67645 -14.35274,3.57574 -19.39652,4.10128 -1.65,0.17192 -6.6,1.26411 -11,2.42708 -4.4,1.16297 -9.29665,2.34594 -10.88145,2.62882 -1.5848,0.28288 -5.3942,1.39749 -8.46534,2.47691 -5.26738,1.85134 -8.00722,2.4582 -7.06988,1.56596 z M 415,116.5 c -0.70675,-0.85158 -1.06,-1.77333 -0.785,-2.04833 0.275,-0.275 1.07825,0.19675 1.785,1.04833 0.70675,0.85158 1.06,1.77333 0.785,2.04833 -0.275,0.275 -1.07825,-0.19675 -1.785,-1.04833 z m -251,-4.60119 c 0,-0.52887 0.5625,-1.12409 1.25,-1.32272 7.4825,-2.16181 16.74501,-4.59886 18.7643,-4.93706 1.38287,-0.23161 7.23287,-1.57815 13,-2.99231 18.55681,-4.550335 54.96117,-9.301288 57.9857,-7.567433 1.01504,0.581884 0.0451,0.892773 -3,0.961587 -4.65674,0.105234 -7.29963,0.368875 -20,1.995095 -15.29387,1.958304 -34.48162,5.588951 -37.23643,7.045761 -0.95504,0.50505 -2.98004,0.94159 -4.5,0.97009 -2.55216,0.0479 -15.36879,3.24816 -23.01357,5.74647 -2.0104,0.657 -3.25,0.69534 -3.25,0.10052 z M 85,110.34559 C 85,108.66848 94.578776,99 96.240331,99 c 0.45652,0 0.348371,0.9 -0.240331,2 -0.588702,1.1 -1.392035,2.00307 -1.785184,2.00683 -0.393149,0.004 -1.80178,1.60278 -3.130292,3.55338 C 88.089417,110.9578 85,112.87983 85,110.34559 z m 84,-4.99449 c 0,-1.21276 4.76426,-3.12105 9.5,-3.80516 4.11872,-0.59497 3.16936,0.0982 -3,2.19059 -1.65,0.5596 -3.7875,1.34595 -4.75,1.74745 -0.9625,0.4015 -1.75,0.3417 -1.75,-0.13288 z m 54.18481,-1.17221 c -0.85244,-0.56875 1.08274,-1.10859 5.5,-1.53427 8.31839,-0.80163 35.00581,-1.6966 30.81519,-1.0334 -1.65,0.26112 -3.675,0.71913 -4.5,1.01778 -0.825,0.29866 -6,0.66431 -11.5,0.81256 -5.5,0.14825 -12.025,0.57223 -14.5,0.94219 -2.475,0.36996 -5.09184,0.27777 -5.81519,-0.20486 z M 98,103.62244 c 0,-0.20765 0.685301,-0.9463 1.522892,-1.64144 1.273348,-1.05678 1.419678,-0.99492 0.893008,0.37756 C 99.878007,103.76029 98,104.74278 98,103.62244 z m 12,-0.0692 c 0,-2.3677 10.32642,-9.174283 19,-12.523715 3.025,-1.168148 7.75,-3.191551 10.5,-4.49645 5.88127,-2.790715 11.64488,-4.721503 12.25949,-4.106888 0.23935,0.239347 -1.74612,1.412987 -4.41216,2.608091 -6.9121,3.09849 -28.06974,13.765421 -33.09733,16.686502 -2.3375,1.35811 -4.25,2.18272 -4.25,1.83246 z m 46.59636,-0.39729 c -0.43269,-0.70012 5.63047,-2.85684 18.31251,-6.513915 2.97487,-0.857855 4.99585,-1.146727 4.49106,-0.641938 -0.50479,0.50479 -3.78442,1.652194 -7.28807,2.549787 -3.50365,0.897593 -8.32394,2.469436 -10.71177,3.492976 -2.38783,1.02354 -4.5495,1.52443 -4.80373,1.11309 z m -10.70408,-2.68346 C 152.34355,97.411874 189.72091,86.672229 203,84.063691 c 14.1358,-2.776832 28.07753,-5.039341 34,-5.517631 15.10061,-1.219502 27.42333,-1.562714 25.5,-0.710225 -1.1,0.487561 -7.175,1.20966 -13.5,1.604665 -14.4354,0.901511 -19.30768,1.478178 -35,4.142486 -1.375,0.233453 -4.3,0.690527 -6.5,1.01572 -5.15266,0.76164 -15.42521,3.327927 -18,4.496756 -1.1,0.499347 -6.275,2.007304 -11.5,3.351016 -12.44039,3.199292 -20.14627,5.319485 -27.5,7.566342 -3.3,1.00828 -6.9,2.09977 -8,2.42553 -1.1,0.32577 0.42653,-0.55888 3.39228,-1.96589 z M 102.00683,101.25 c 0.004,-0.4125 1.46626,-1.689489 3.25,-2.837753 1.78374,-1.148263 4.58587,-2.948263 6.22695,-4 9.0222,-5.782162 25.63193,-13.891338 33.84573,-16.524109 14.67581,-4.70404 17.98234,-4.204559 4.17049,0.629989 -7.68352,2.689455 -12.97833,4.835627 -20.5,8.309365 -1.925,0.889024 -8.44146,4.66653 -14.48103,8.394458 -10.83465,6.6877 -12.52557,7.50234 -12.51214,6.02805 z M 187.5,99.417478 c 2.75,-0.772028 5.675,-1.261568 6.5,-1.087866 2.02554,0.426474 -5.85293,2.680938 -9,2.575398 -1.64159,-0.0551 -0.78318,-0.56582 2.5,-1.487532 z m 187,-5.678368 C 361.18513,86.970255 361.25128,87 359.51357,87 c -2.8852,0 -1.49469,-1.500509 1.48871,-1.606481 1.64875,-0.05856 2.99772,0.239382 2.99772,0.662102 0,0.422721 1.9125,1.077893 4.25,1.455937 2.3375,0.378045 6.275,1.545364 8.75,2.594041 l 4.5,1.906687 -2.5,-1.988491 c -1.375,-1.09367 -6.1,-3.783066 -10.5,-5.976435 -4.4,-2.193369 -7.57952,-4.001312 -7.0656,-4.017652 1.98924,-0.06325 13.42208,3.350458 20.78966,6.207534 8.48054,3.288672 10.81734,5.121355 8.93291,7.005792 -0.8777,0.877695 -2.02408,0.845191 -4.73249,-0.134182 -1.96582,-0.710849 -3.84052,-1.026142 -4.16601,-0.700652 -0.32549,0.32549 0.0798,0.5918 0.90055,0.5918 1.46955,0 5.84098,3.977372 5.84098,5.314451 0,1.762549 -5.35945,0.07142 -14.5,-4.575341 z m -238.22722,3.240532 c 0.97503,-0.607487 3.90003,-1.714047 6.5,-2.459024 2.59997,-0.744977 9.45222,-2.968893 15.22722,-4.942035 5.775,-1.973142 13.72092,-4.255849 17.65761,-5.072682 3.93669,-0.816832 8.41097,-1.961677 9.94286,-2.544098 6.14763,-2.337325 34.66394,-7.744355 44.89953,-8.513481 1.65,-0.123985 6.78266,-0.571129 11.40591,-0.993653 6.24842,-0.57105 8.22337,-0.472866 7.6947,0.38254 -0.39913,0.645813 -2.99063,1.118735 -5.90591,1.077769 -2.85709,-0.04015 -8.3447,0.428078 -12.1947,1.040503 -3.85,0.612424 -9.925,1.350166 -13.5,1.639425 -3.575,0.289259 -9.2,1.206681 -12.5,2.038716 -3.3,0.832035 -8.475,2.113581 -11.5,2.84788 -19.97351,4.84844 -37.63569,9.95518 -45,13.011037 -6.06874,2.518254 -15.84284,4.42827 -12.72722,2.487103 z M 203,95.955719 c 8.61482,-2.152251 11.85608,-2.372495 7.5,-0.509627 -1.65,0.70562 -5.7,1.530538 -9,1.833153 l -6,0.550208 7.5,-1.873734 z m -102,-0.36535 c 0,-0.939641 14.25477,-9.69825 22.62921,-13.904148 7.93231,-3.983844 11.84605,-5.421678 22.37079,-8.218599 2.27969,-0.605822 2.23352,-0.49286 -0.52399,1.281864 -1.6632,1.070428 -4.8132,2.532318 -7,3.248644 -2.18681,0.716326 -7.42154,3.03479 -11.63274,5.152141 C 122.63207,85.267622 118.78654,87 118.29766,87 c -0.48888,0 -4.24336,2.017499 -8.34327,4.483331 C 102.97888,95.678648 101,96.586284 101,95.590369 z m 33.42823,-0.47425 c 1.3797,-2.232394 28.29448,-12.111134 37.15841,-13.638536 5.44166,-0.937689 13.44835,-3.273816 14.79197,-4.31588 1.73203,-1.343299 14.1388,-4.173127 17.82691,-4.06609 3.21861,0.09341 3.19085,0.128025 -1.20552,1.503067 -2.475,0.774099 -11.025,3.179107 -19,5.344461 -24.28983,6.595119 -28.18699,7.794979 -38.98058,12.001368 -11.43007,4.454434 -11.37356,4.437511 -10.59119,3.17161 z M 183.5,95.241503 c 0.55,-0.540808 2.35,-1.272567 4,-1.626133 3.44208,-0.737576 1.53746,0.691703 -2.5,1.876062 -1.64244,0.481799 -2.15698,0.396067 -1.5,-0.249929 z M 215,93.986269 c 0,-0.941196 3.80905,-1.693584 12,-2.370316 6.39039,-0.52797 6.41568,-0.520448 1.5,0.446009 -2.75,0.54067 -6.9125,1.360482 -9.25,1.821806 -2.3375,0.461323 -4.25,0.507449 -4.25,0.102501 z m -22.43748,-0.757087 c -0.3411,-0.341096 1.53029,-1.187341 4.15865,-1.880545 5.37162,-1.416714 6.87426,-1.610734 6.04391,-0.780389 -1.06277,1.062773 -9.57948,3.284019 -10.20256,2.660934 z M 234,90.799199 C 234,90.35964 235.575,90 237.5,90 c 1.925,0 3.5,0.175767 3.5,0.390594 0,0.214827 -1.575,0.574466 -3.5,0.799199 -1.925,0.224733 -3.5,0.04897 -3.5,-0.390594 z m -28.67509,-0.515897 c 0.35915,-0.581117 2.34547,-1.363313 4.41404,-1.738214 2.06858,-0.374901 4.77355,-0.924698 6.01105,-1.221771 1.2375,-0.297073 2.25,-0.10403 2.25,0.428984 0,0.533014 -2.1375,1.224843 -4.75,1.537396 -2.6125,0.312554 -5.61132,0.901707 -6.66404,1.30923 -1.24437,0.481709 -1.68558,0.371279 -1.26105,-0.315625 z m 38.29316,-0.474341 C 243.89305,89.364032 247.76648,89 252.22568,89 c 4.45921,0 7.92015,0.176629 7.69099,0.392508 -0.84061,0.791868 -16.78237,1.199203 -16.2986,0.416453 z M 221,87.179895 c 0.825,-0.526741 4.425,-1.268212 8,-1.647714 3.575,-0.379501 7.625,-0.843982 9,-1.032181 8.10892,-1.109882 15.32,-1.418365 13.5,-0.577517 -1.1,0.508204 -7.625,1.408702 -14.5,2.001105 -6.875,0.592403 -13.625,1.332904 -15,1.645557 -1.83136,0.416423 -2.09882,0.312316 -1,-0.38925 z M 353,85 c -1.21296,-0.783874 -1.06944,-0.972305 0.75,-0.984687 C 354.9875,84.006891 356,84.45 356,85 c 0,1.252922 -1.06124,1.252922 -3,0 z m -7.1875,-2.683114 c 0.72187,-0.288871 1.58438,-0.253344 1.91667,0.07895 0.33229,0.332292 -0.25834,0.568641 -1.3125,0.52522 -1.16495,-0.04798 -1.4019,-0.284941 -0.60417,-0.604167 z m -64.98252,-8.820238 c -0.20105,-0.201052 -6.33611,-0.464007 -13.63346,-0.584345 -7.29735,-0.120338 -13.47764,-0.558155 -13.73399,-0.972927 -0.47938,-0.775655 29.40997,-0.40021 30.18939,0.379214 0.23889,0.238883 -0.21608,0.68392 -1.01103,0.98897 -0.79495,0.305051 -1.60986,0.390141 -1.81091,0.189088 z m 94.31276,85.392042 C 374.64047,157.57491 373.21414,155.6 371.97311,154.5 l -2.25642,-2 1.3822,2.25 c 0.76021,1.2375 1.67517,2.25 2.03325,2.25 0.35807,0 0.94673,1.1781 1.30812,2.618 0.36139,1.4399 0.87277,2.40231 1.13639,2.13869 0.26362,-0.26362 0.0684,-1.55422 -0.43391,-2.868 z m 22.38372,-1.69556 c -0.30789,-0.30789 -1.11479,-6.4e-4 -1.79313,0.68278 -0.98026,0.98762 -0.8654,1.10248 0.5598,0.5598 0.98622,-0.37553 1.54122,-0.93469 1.23333,-1.24258 z m -0.23635,-4.19451 c 0.28785,-1.10076 0.11534,-1.7492 -0.38337,-1.44098 -0.49871,0.30822 -0.90674,1.20884 -0.90674,2.00138 0,2.06975 0.6795,1.77459 1.29011,-0.5604 z M 388,151.09312 c 0,-0.49879 -2.3625,-2.81181 -5.25,-5.14006 l -5.25,-4.23318 5,4.99281 c 5.79396,5.78564 5.5,5.55151 5.5,4.38043 z M 406.03297,144.5 c 1.35701,-1.85001 1.33579,-1.89707 -0.28297,-0.62756 -0.9625,0.75485 -1.75,1.84235 -1.75,2.41667 0,0.57432 0.12734,0.85672 0.28297,0.62756 0.15563,-0.22917 0.94313,-1.31667 1.75,-2.41667 z m 7.66002,-9.23097 c -0.25354,-0.97297 -0.47766,-0.41903 -0.49804,1.23097 -0.0204,1.65 0.18706,2.44606 0.46099,1.76903 0.27392,-0.67703 0.29059,-2.02703 0.0371,-3 z M 76.083333,231.63266 C 77.261921,230.5936 84,230.01656 84,230.95469 84,231.52961 82.125,232 79.833333,232 c -2.291666,0 -3.979166,-0.1653 -3.75,-0.36734 z m -3.717104,-5.84911 c -0.592998,-0.95949 -0.786027,-0.89929 4.383771,-1.36703 2.3375,-0.21149 4.25,0.011 4.25,0.49444 0,1.11667 -7.984208,1.92361 -8.633771,0.87259 z M 129,224 c 0,-0.55 1.125,-1 2.5,-1 1.375,0 2.5,0.45 2.5,1 0,0.55 -1.125,1 -2.5,1 -1.375,0 -2.5,-0.45 -2.5,-1 z m -7.5,-2 c -0.36506,-0.59067 0.73644,-0.99373 2.69098,-0.98469 2.50438,0.0116 2.94427,0.25104 1.80902,0.98469 -1.94393,1.25626 -3.72359,1.25626 -4.5,0 z M 71,220.7872 C 71,220.35424 72.151558,220 73.559017,220 c 1.407459,0 2.298599,0.42137 1.98031,0.93637 C 74.851977,222.04852 71,221.92194 71,220.7872 z m 20.058218,-0.87736 C 83.305026,218.38945 84.198809,218.18451 97,218.5474 c 6.875,0.1949 14.6375,0.37646 17.25,0.40348 2.6125,0.027 4.75,0.49912 4.75,1.04912 0,1.22829 -21.573352,1.15868 -27.941782,-0.0902 z M 79,214.95557 c -2.666319,-0.38821 1.816011,-0.6929 11,-0.74775 8.525,-0.0509 17.3,0.28854 19.5,0.75434 4.83025,1.02267 -23.472657,1.01656 -30.5,-0.007 z M 84,210 c -1.670296,-0.53492 0.550319,-0.83372 6.690983,-0.90032 5.162623,-0.056 9.461867,0.33861 9.809017,0.90032 0.74207,1.2007 -12.750817,1.2007 -16.5,0 z"
     id="path2991"
     inkscape:connector-curvature="0" />
</svg>
